<?xml version="1.0" encoding="UTF-8" ?>
<!DOCTYPE svg PUBLIC "-//W3C//DTD SVG 1.1//EN" "http://www.w3.org/Graphics/SVG/1.1/DTD/svg11.dtd">
<svg width="2000pt" height="600pt" viewBox="0 0 2000 600" version="1.1" xmlns="http://www.w3.org/2000/svg">
<g id="#ffffffff">
<path fill="#ffffff" opacity="1.00" d=" M 0.00 0.00 L 2000.00 0.00 L 2000.00 600.00 L 0.00 600.00 L 0.00 0.00 M 384.51 119.43 C 364.73 148.33 346.08 178.23 331.93 210.33 C 321.08 195.61 308.09 182.45 293.30 171.68 C 268.52 153.63 239.17 142.09 208.90 137.56 C 199.57 136.07 190.11 136.08 180.69 135.87 C 176.31 150.48 172.58 165.32 170.69 180.48 C 164.48 225.36 167.41 271.70 180.99 315.02 C 181.89 317.62 182.64 320.28 183.25 322.98 C 163.65 321.61 143.82 323.50 124.91 328.86 C 91.13 338.52 59.93 357.40 36.13 383.29 C 50.25 412.64 70.02 439.04 93.00 462.03 C 117.42 486.06 146.02 506.26 177.85 519.19 C 219.65 535.96 266.49 537.83 310.26 528.29 C 342.88 521.05 374.56 508.50 402.48 490.02 C 371.59 500.55 339.44 507.69 306.83 509.84 C 269.60 512.43 231.39 507.91 196.90 493.17 C 174.31 483.65 154.07 469.37 135.60 453.41 C 114.34 434.76 95.37 413.44 79.62 389.95 C 111.46 363.22 153.27 347.25 195.11 350.08 C 201.51 362.24 208.76 373.98 217.12 384.90 C 243.31 419.57 278.92 446.55 318.15 464.87 C 333.91 472.03 350.17 478.38 367.12 482.02 C 322.64 458.11 281.38 426.72 250.71 386.25 C 230.43 359.31 215.51 328.14 208.81 295.01 C 200.64 254.78 200.35 213.07 206.88 172.59 C 251.61 178.00 294.84 200.91 321.52 237.65 C 320.16 244.39 318.07 251.03 317.41 257.92 C 313.46 294.04 320.52 331.06 336.17 363.76 C 344.09 380.37 354.05 396.01 365.76 410.21 C 376.74 423.45 388.92 435.80 402.79 446.02 C 393.70 433.92 385.18 421.38 377.80 408.16 C 357.33 371.70 343.99 330.20 345.80 288.03 C 346.63 276.61 347.39 265.00 351.06 254.06 C 357.20 235.23 366.80 217.77 376.78 200.75 C 395.20 170.14 415.86 140.90 437.65 112.61 C 460.42 142.83 482.56 173.65 501.60 206.40 C 511.58 224.05 521.37 242.20 526.20 262.03 C 532.52 294.23 529.16 327.87 519.02 358.93 C 508.90 390.33 492.41 419.35 472.68 445.67 C 489.40 433.27 503.71 417.85 516.23 401.28 C 537.88 372.11 552.80 337.62 557.15 301.43 C 559.72 280.34 559.42 258.58 553.44 238.06 C 560.23 229.40 567.46 221.03 575.78 213.81 C 601.64 190.83 634.89 176.79 669.11 172.61 C 672.31 191.89 673.75 211.45 673.69 230.99 C 673.30 267.54 668.24 304.69 653.35 338.35 C 639.88 369.01 619.55 396.37 595.48 419.53 C 569.73 444.52 539.90 464.99 508.38 482.00 C 515.23 480.62 521.91 478.54 528.55 476.38 C 562.08 465.00 593.60 447.55 620.72 424.76 C 645.44 404.16 666.06 378.65 680.90 350.08 C 722.94 347.20 764.83 363.27 796.96 389.92 C 773.68 423.94 744.31 454.06 709.82 476.77 C 677.94 497.83 639.94 508.42 601.97 510.19 C 558.13 512.21 514.31 504.06 472.87 490.07 C 492.49 503.24 514.26 512.95 536.60 520.48 C 579.07 534.47 625.37 538.60 669.14 528.29 C 700.88 521.15 730.10 505.45 755.91 485.94 C 782.65 465.50 805.65 440.29 824.23 412.27 C 830.34 403.08 835.27 393.21 840.53 383.54 C 828.58 370.25 814.61 358.83 799.21 349.75 C 767.53 330.34 729.95 320.07 692.75 322.98 C 699.21 302.49 704.40 281.52 706.63 260.12 C 711.06 218.53 708.00 175.82 695.35 135.85 C 685.69 136.05 675.99 136.10 666.43 137.64 C 648.41 140.43 630.73 145.59 614.15 153.19 C 586.03 165.84 561.36 185.90 543.19 210.81 C 535.30 192.14 525.31 174.43 514.92 157.05 C 492.05 119.18 465.40 83.78 437.57 49.46 C 419.13 72.20 401.05 95.26 384.51 119.43 M 848.02 158.61 C 883.54 223.30 918.99 288.03 954.62 352.66 C 954.65 384.97 954.65 417.29 954.62 449.61 C 977.87 449.59 1001.13 449.59 1024.38 449.61 C 1024.33 417.27 1024.38 384.92 1024.36 352.58 C 1059.88 287.94 1095.40 223.29 1130.86 158.62 C 1104.63 158.66 1078.40 158.64 1052.16 158.63 C 1031.71 199.27 1011.14 239.84 990.64 280.45 C 990.02 280.43 988.79 280.37 988.17 280.34 C 967.73 239.75 947.15 199.24 926.74 158.64 C 900.50 158.62 874.26 158.68 848.02 158.61 M 1187.19 229.21 C 1164.79 231.21 1142.66 239.65 1125.92 254.89 C 1106.73 271.98 1095.73 296.87 1092.78 322.13 C 1089.66 348.72 1092.46 376.82 1105.23 400.72 C 1112.96 415.54 1124.62 428.31 1138.82 437.16 C 1157.48 449.15 1180.02 453.98 1202.00 453.61 C 1224.21 453.97 1247.00 448.99 1265.75 436.70 C 1279.41 427.95 1290.65 415.56 1298.27 401.26 C 1308.41 382.59 1312.35 361.08 1312.18 339.98 C 1312.05 316.96 1306.81 293.45 1294.11 273.99 C 1283.45 257.30 1267.36 244.25 1249.01 236.86 C 1229.48 229.02 1207.99 227.46 1187.19 229.21 M 1688.13 254.11 C 1675.88 265.59 1668.18 281.40 1665.81 297.96 C 1687.20 298.60 1708.58 299.48 1729.97 300.19 C 1731.76 291.94 1737.38 284.62 1745.15 281.18 C 1753.43 277.44 1762.94 277.07 1771.80 278.61 C 1779.66 280.13 1787.34 285.31 1789.67 293.30 C 1791.02 298.45 1791.59 304.61 1788.11 309.07 C 1784.54 313.56 1778.65 314.91 1773.35 316.14 C 1760.51 318.84 1747.42 319.98 1734.37 321.14 C 1721.08 322.67 1707.87 325.58 1695.46 330.64 C 1681.96 336.28 1669.81 346.20 1663.46 359.58 C 1658.86 369.69 1657.58 381.00 1657.83 392.01 C 1658.24 404.45 1661.07 417.25 1668.50 427.47 C 1674.08 435.39 1682.23 441.13 1690.84 445.37 C 1708.67 453.74 1729.25 455.00 1748.47 451.63 C 1765.10 448.66 1780.71 439.17 1789.76 424.73 C 1791.28 422.69 1791.98 419.77 1794.53 418.72 C 1794.76 429.01 1794.59 439.31 1794.62 449.61 C 1816.47 449.59 1838.32 449.61 1860.18 449.60 C 1860.14 400.40 1860.19 351.19 1860.16 301.99 C 1860.06 289.84 1857.56 277.42 1851.02 267.03 C 1842.57 253.52 1829.18 243.63 1814.53 237.69 C 1792.88 228.82 1768.92 227.27 1745.83 229.41 C 1724.73 231.41 1703.25 238.70 1688.13 254.11 M 1316.96 231.38 C 1335.92 304.12 1354.85 376.86 1373.79 449.60 C 1398.64 449.61 1423.49 449.59 1448.34 449.61 C 1459.67 407.21 1471.06 364.84 1482.43 322.46 C 1482.98 322.40 1484.07 322.29 1484.61 322.23 C 1496.13 364.66 1507.38 407.16 1518.85 449.61 C 1543.64 449.59 1568.43 449.60 1593.22 449.60 C 1612.24 376.87 1631.08 304.09 1650.26 231.40 C 1626.93 231.40 1603.61 231.39 1580.28 231.41 C 1570.82 277.72 1561.35 324.04 1551.68 370.30 C 1549.45 370.17 1549.54 367.69 1549.04 366.09 C 1538.68 321.18 1528.01 276.35 1517.71 231.43 C 1494.99 231.35 1472.26 231.44 1449.54 231.38 C 1439.10 277.39 1428.79 323.43 1418.36 369.43 C 1418.15 370.54 1417.48 371.16 1416.33 371.30 C 1406.39 324.69 1396.57 278.05 1386.89 231.39 C 1363.58 231.41 1340.27 231.42 1316.96 231.38 M 1923.13 381.08 C 1915.36 382.68 1908.31 387.04 1903.12 392.98 C 1890.69 406.69 1891.57 430.25 1905.12 442.90 C 1915.59 454.06 1933.42 456.79 1947.06 450.22 C 1953.93 446.75 1959.79 441.25 1963.70 434.63 C 1970.34 423.08 1969.92 407.73 1962.24 396.78 C 1957.92 390.77 1952.05 385.81 1945.22 382.90 C 1938.29 379.93 1930.45 379.82 1923.13 381.08 Z" />
<path fill="#ffffff" opacity="1.00" d=" M 1195.46 280.60 C 1203.56 279.32 1212.32 280.13 1219.37 284.61 C 1226.65 289.01 1231.50 296.42 1234.82 304.07 C 1239.99 315.98 1241.29 329.14 1241.42 341.99 C 1241.05 359.00 1238.04 377.21 1226.66 390.55 C 1215.92 403.31 1195.19 404.68 1182.05 394.96 C 1172.25 387.39 1167.24 375.32 1164.62 363.54 C 1162.40 352.23 1161.69 340.56 1163.01 329.09 C 1164.03 316.64 1167.48 304.05 1174.82 293.80 C 1179.64 286.93 1187.15 282.01 1195.46 280.60 Z" />
<path fill="#ffffff" opacity="1.00" d=" M 1762.66 358.84 C 1772.23 356.99 1782.18 355.83 1791.01 351.42 C 1790.97 358.63 1791.02 365.85 1791.00 373.07 C 1791.02 381.21 1787.90 389.39 1782.12 395.18 C 1775.09 402.65 1765.10 406.97 1754.92 407.69 C 1746.44 408.36 1737.23 406.92 1730.46 401.42 C 1720.90 393.46 1721.54 376.81 1731.13 369.12 C 1739.91 361.74 1751.78 360.63 1762.66 358.84 Z" />
</g>
<g id="#ff9f66ff">
<path fill="#ff9f66" opacity="1.00" d=" M 384.51 119.43 C 401.05 95.26 419.13 72.20 437.57 49.46 C 465.40 83.78 492.05 119.18 514.92 157.05 C 525.31 174.43 535.30 192.14 543.19 210.81 C 561.36 185.90 586.03 165.84 614.15 153.19 C 630.73 145.59 648.41 140.43 666.43 137.64 C 675.99 136.10 685.69 136.05 695.35 135.85 C 708.00 175.82 711.06 218.53 706.63 260.12 C 704.40 281.52 699.21 302.49 692.75 322.98 C 729.95 320.07 767.53 330.34 799.21 349.75 C 814.61 358.83 828.58 370.25 840.53 383.54 C 835.27 393.21 830.34 403.08 824.23 412.27 C 805.65 440.29 782.65 465.50 755.91 485.94 C 730.10 505.45 700.88 521.15 669.14 528.29 C 625.37 538.60 579.07 534.47 536.60 520.48 C 514.26 512.95 492.49 503.24 472.87 490.07 C 514.31 504.06 558.13 512.21 601.97 510.19 C 639.94 508.42 677.94 497.83 709.82 476.77 C 744.31 454.06 773.68 423.94 796.96 389.92 C 764.83 363.27 722.94 347.20 680.90 350.08 C 666.06 378.65 645.44 404.16 620.72 424.76 C 593.60 447.55 562.08 465.00 528.55 476.38 C 521.91 478.54 515.23 480.62 508.38 482.00 C 539.90 464.99 569.73 444.52 595.48 419.53 C 619.55 396.37 639.88 369.01 653.35 338.35 C 668.24 304.69 673.30 267.54 673.69 230.99 C 673.75 211.45 672.31 191.89 669.11 172.61 C 634.89 176.79 601.64 190.83 575.78 213.81 C 567.46 221.03 560.23 229.40 553.44 238.06 C 559.42 258.58 559.72 280.34 557.15 301.43 C 552.80 337.62 537.88 372.11 516.23 401.28 C 503.71 417.85 489.40 433.27 472.68 445.67 C 492.41 419.35 508.90 390.33 519.02 358.93 C 529.16 327.87 532.52 294.23 526.20 262.03 C 521.37 242.20 511.58 224.05 501.60 206.40 C 482.56 173.65 460.42 142.83 437.65 112.61 C 415.86 140.90 395.20 170.14 376.78 200.75 C 366.80 217.77 357.20 235.23 351.06 254.06 C 347.39 265.00 346.63 276.61 345.80 288.03 C 343.99 330.20 357.33 371.70 377.80 408.16 C 385.18 421.38 393.70 433.92 402.79 446.02 C 388.92 435.80 376.74 423.45 365.76 410.21 C 354.05 396.01 344.09 380.37 336.17 363.76 C 320.52 331.06 313.46 294.04 317.41 257.92 C 318.07 251.03 320.16 244.39 321.52 237.65 C 294.84 200.91 251.61 178.00 206.88 172.59 C 200.35 213.07 200.64 254.78 208.81 295.01 C 215.51 328.14 230.43 359.31 250.71 386.25 C 281.38 426.72 322.64 458.11 367.12 482.02 C 350.17 478.38 333.91 472.03 318.15 464.87 C 278.92 446.55 243.31 419.57 217.12 384.90 C 208.76 373.98 201.51 362.24 195.11 350.08 C 153.27 347.25 111.46 363.22 79.62 389.95 C 95.37 413.44 114.34 434.76 135.60 453.41 C 154.07 469.37 174.31 483.65 196.90 493.17 C 231.39 507.91 269.60 512.43 306.83 509.84 C 339.44 507.69 371.59 500.55 402.48 490.02 C 374.56 508.50 342.88 521.05 310.26 528.29 C 266.49 537.83 219.65 535.96 177.85 519.19 C 146.02 506.26 117.42 486.06 93.00 462.03 C 70.02 439.04 50.25 412.64 36.13 383.29 C 59.93 357.40 91.13 338.52 124.91 328.86 C 143.82 323.50 163.65 321.61 183.25 322.98 C 182.64 320.28 181.89 317.62 180.99 315.02 C 167.41 271.70 164.48 225.36 170.69 180.48 C 172.58 165.32 176.31 150.48 180.69 135.87 C 190.11 136.08 199.57 136.07 208.90 137.56 C 239.17 142.09 268.52 153.63 293.30 171.68 C 308.09 182.45 321.08 195.61 331.93 210.33 C 346.08 178.23 364.73 148.33 384.51 119.43 Z" />
</g>
<g id="#000000ff">
<path fill="#000000" opacity="1.00" d=" M 848.02 158.61 C 874.26 158.68 900.50 158.62 926.74 158.64 C 947.15 199.24 967.73 239.75 988.17 280.34 C 988.79 280.37 990.02 280.43 990.64 280.45 C 1011.14 239.84 1031.71 199.27 1052.16 158.63 C 1078.40 158.64 1104.63 158.66 1130.86 158.62 C 1095.40 223.29 1059.88 287.94 1024.36 352.58 C 1024.38 384.92 1024.33 417.27 1024.38 449.61 C 1001.13 449.59 977.87 449.59 954.62 449.61 C 954.65 417.29 954.65 384.97 954.62 352.66 C 918.99 288.03 883.54 223.30 848.02 158.61 Z" />
<path fill="#000000" opacity="1.00" d=" M 1187.19 229.21 C 1207.99 227.46 1229.48 229.02 1249.01 236.86 C 1267.36 244.25 1283.45 257.30 1294.11 273.99 C 1306.81 293.45 1312.05 316.96 1312.18 339.98 C 1312.35 361.08 1308.41 382.59 1298.27 401.26 C 1290.65 415.56 1279.41 427.95 1265.75 436.70 C 1247.00 448.99 1224.21 453.97 1202.00 453.61 C 1180.02 453.98 1157.48 449.15 1138.82 437.16 C 1124.62 428.31 1112.96 415.54 1105.23 400.72 C 1092.46 376.82 1089.66 348.72 1092.78 322.13 C 1095.73 296.87 1106.73 271.98 1125.92 254.89 C 1142.66 239.65 1164.79 231.21 1187.19 229.21 M 1195.46 280.60 C 1187.15 282.01 1179.64 286.93 1174.82 293.80 C 1167.48 304.05 1164.03 316.64 1163.01 329.09 C 1161.69 340.56 1162.40 352.23 1164.62 363.54 C 1167.24 375.32 1172.25 387.39 1182.05 394.96 C 1195.19 404.68 1215.92 403.31 1226.66 390.55 C 1238.04 377.21 1241.05 359.00 1241.42 341.99 C 1241.29 329.14 1239.99 315.98 1234.82 304.07 C 1231.50 296.42 1226.65 289.01 1219.37 284.61 C 1212.32 280.13 1203.56 279.32 1195.46 280.60 Z" />
<path fill="#000000" opacity="1.00" d=" M 1688.13 254.11 C 1703.25 238.70 1724.73 231.41 1745.83 229.41 C 1768.92 227.27 1792.88 228.82 1814.53 237.69 C 1829.18 243.63 1842.57 253.52 1851.02 267.03 C 1857.56 277.42 1860.06 289.84 1860.16 301.99 C 1860.19 351.19 1860.14 400.40 1860.18 449.60 C 1838.32 449.61 1816.47 449.59 1794.62 449.61 C 1794.59 439.31 1794.76 429.01 1794.53 418.72 C 1791.98 419.77 1791.28 422.69 1789.76 424.73 C 1780.71 439.17 1765.10 448.66 1748.47 451.63 C 1729.25 455.00 1708.67 453.74 1690.84 445.37 C 1682.23 441.13 1674.08 435.39 1668.50 427.47 C 1661.07 417.25 1658.24 404.45 1657.83 392.01 C 1657.58 381.00 1658.86 369.69 1663.46 359.58 C 1669.81 346.20 1681.96 336.28 1695.46 330.64 C 1707.87 325.58 1721.08 322.67 1734.37 321.14 C 1747.42 319.98 1760.51 318.84 1773.35 316.14 C 1778.65 314.91 1784.54 313.56 1788.11 309.07 C 1791.59 304.61 1791.02 298.45 1789.67 293.30 C 1787.34 285.31 1779.66 280.13 1771.80 278.61 C 1762.94 277.07 1753.43 277.44 1745.15 281.18 C 1737.38 284.62 1731.76 291.94 1729.97 300.19 C 1708.58 299.48 1687.20 298.60 1665.81 297.96 C 1668.18 281.40 1675.88 265.59 1688.13 254.11 M 1762.66 358.84 C 1751.78 360.63 1739.91 361.74 1731.13 369.12 C 1721.54 376.81 1720.90 393.46 1730.46 401.42 C 1737.23 406.92 1746.44 408.36 1754.92 407.69 C 1765.10 406.97 1775.09 402.65 1782.12 395.18 C 1787.90 389.39 1791.02 381.21 1791.00 373.07 C 1791.02 365.85 1790.97 358.63 1791.01 351.42 C 1782.18 355.83 1772.23 356.99 1762.66 358.84 Z" />
<path fill="#000000" opacity="1.00" d=" M 1316.96 231.38 C 1340.27 231.42 1363.58 231.41 1386.89 231.39 C 1396.57 278.05 1406.39 324.69 1416.33 371.30 C 1417.48 371.16 1418.15 370.54 1418.36 369.43 C 1428.79 323.43 1439.10 277.39 1449.54 231.38 C 1472.26 231.44 1494.99 231.35 1517.71 231.43 C 1528.01 276.35 1538.68 321.18 1549.04 366.09 C 1549.54 367.69 1549.45 370.17 1551.68 370.30 C 1561.35 324.04 1570.82 277.72 1580.28 231.41 C 1603.61 231.39 1626.93 231.40 1650.26 231.40 C 1631.08 304.09 1612.24 376.87 1593.22 449.60 C 1568.43 449.60 1543.64 449.59 1518.85 449.61 C 1507.38 407.16 1496.13 364.66 1484.61 322.23 C 1484.07 322.29 1482.98 322.40 1482.43 322.46 C 1471.06 364.84 1459.67 407.21 1448.34 449.61 C 1423.49 449.59 1398.64 449.61 1373.79 449.60 C 1354.85 376.86 1335.92 304.12 1316.96 231.38 Z" />
<path fill="#000000" opacity="1.00" d=" M 1923.13 381.08 C 1930.45 379.82 1938.29 379.93 1945.22 382.90 C 1952.05 385.81 1957.92 390.77 1962.24 396.78 C 1969.92 407.73 1970.34 423.08 1963.70 434.63 C 1959.79 441.25 1953.93 446.75 1947.06 450.22 C 1933.42 456.79 1915.59 454.06 1905.12 442.90 C 1891.57 430.25 1890.69 406.69 1903.12 392.98 C 1908.31 387.04 1915.36 382.68 1923.13 381.08 Z" />
</g>
</svg>
